<svg xmlns="http://www.w3.org/2000/svg" width="83.97" height="70" viewBox="0 0 83.97 70">
  <defs>
    <style>
      .cls-1 {
        fill: #ff817e;
        fill-rule: evenodd;
      }
    </style>
  </defs>
  <path id="Icon_" data-name="Icon " class="cls-1" d="M959.911,1093.85s44.629-23.07,11.44-64.85c0,0-2.194,12.37-14.776,21.91,0,0-15.747,12.98-6.887,31.34,0,0-7.147-5.16-15.126-3.37,0,0-8.876,3.28-16.564-.38,0,0,7.666,30.13,36.683,17.18a27.375,27.375,0,0,1-20.691-6.58s10.866,6.34,21.8,4.27a56.862,56.862,0,0,0,14.915-35.26S973.965,1073.85,959.911,1093.85Zm39.074-40.91a5.9,5.9,0,0,0-8.088,2.19,5.985,5.985,0,0,0,2.18,8.14,5.914,5.914,0,0,0,4.105.67c-1.48,4.19-11.557,29.16-43.084,35.05,0,0,33.266-2.05,47.392-38.54,0.01-.03.01-0.06,0.02-0.09A5.97,5.97,0,0,0,998.985,1052.94Z" transform="translate(-918 -1029)"/>
</svg>
